<svg width="24" height="10" viewBox="0 0 24 10" fill="none" xmlns="http://www.w3.org/2000/svg">
<path d="M7.74345 8.188C7.66879 8.188 7.59412 8.174 7.51945 8.146L1.93345 5.64C1.77479 5.56533 1.64879 5.46733 1.55545 5.346C1.47145 5.21533 1.42945 5.07067 1.42945 4.912V4.8C1.42945 4.64133 1.47145 4.50133 1.55545 4.38C1.64879 4.24933 1.77479 4.14667 1.93345 4.072L7.51945 1.566C7.59412 1.538 7.66879 1.524 7.74345 1.524C7.90212 1.524 8.03279 1.58 8.13545 1.692C8.24745 1.79467 8.30345 1.92533 8.30345 2.084C8.30345 2.196 8.26612 2.30333 8.19145 2.406C8.12612 2.49933 8.03745 2.56933 7.92545 2.616L2.88545 4.856L7.92545 7.096C8.03745 7.14267 8.12612 7.21733 8.19145 7.32C8.26612 7.41333 8.30345 7.516 8.30345 7.628C8.30345 7.78667 8.24745 7.922 8.13545 8.034C8.03279 8.13667 7.90212 8.188 7.74345 8.188Z" fill="white"/>
<path d="M14.6618 7.416C14.6618 7.704 14.5898 7.968 14.4458 8.208C14.3018 8.448 14.1098 8.64 13.8698 8.784C13.6298 8.928 13.3658 9 13.0778 9H10.9178C10.6298 9 10.3618 8.928 10.1138 8.784C9.8738 8.64 9.6818 8.448 9.5378 8.208C9.3938 7.968 9.3218 7.704 9.3218 7.416V6.552C9.3218 6.4 9.3738 6.272 9.4778 6.168C9.5898 6.056 9.7218 6 9.8738 6H10.2098C10.3618 6 10.4898 6.056 10.5938 6.168C10.7058 6.272 10.7618 6.4 10.7618 6.552V7.416C10.7618 7.456 10.7778 7.496 10.8098 7.536C10.8418 7.568 10.8778 7.584 10.9178 7.584H13.0778C13.1178 7.584 13.1538 7.568 13.1858 7.536C13.2178 7.496 13.2338 7.456 13.2338 7.416V1.44C13.2338 1.28 13.2858 1.148 13.3898 1.044C13.5018 0.939999 13.6338 0.887999 13.7858 0.887999H14.1098C14.2698 0.887999 14.4018 0.939999 14.5058 1.044C14.6098 1.148 14.6618 1.28 14.6618 1.44V7.416Z" fill="white"/>
<path d="M16.2555 8.188C16.0968 8.188 15.9615 8.13667 15.8495 8.034C15.7468 7.922 15.6955 7.78667 15.6955 7.628C15.6955 7.516 15.7281 7.41333 15.7935 7.32C15.8681 7.21733 15.9615 7.14267 16.0735 7.096L21.1135 4.856L16.0735 2.616C15.9615 2.56933 15.8681 2.49933 15.7935 2.406C15.7281 2.30333 15.6955 2.196 15.6955 2.084C15.6955 1.92533 15.7468 1.79467 15.8495 1.692C15.9615 1.58 16.0968 1.524 16.2555 1.524C16.3395 1.524 16.4141 1.538 16.4795 1.566L22.0655 4.072C22.2241 4.14667 22.3455 4.24933 22.4295 4.38C22.5228 4.50133 22.5695 4.64133 22.5695 4.8V4.912C22.5695 5.07067 22.5228 5.21533 22.4295 5.346C22.3455 5.46733 22.2241 5.56533 22.0655 5.64L16.4795 8.146C16.4141 8.174 16.3395 8.188 16.2555 8.188Z" fill="white"/>
</svg>
